<svg xmlns="http://www.w3.org/2000/svg" xmlns:xlink="http://www.w3.org/1999/xlink" viewBox="0 0 1000 1000">
  <defs>
    <style>
      .cls-1 {
        fill: url(#Безымянный_градиент_245);
      }

      .cls-2 {
        fill: url(#Безымянный_градиент_245-2);
      }

      .cls-3 {
        fill: url(#Безымянный_градиент_245-3);
      }

      .cls-4 {
        fill: url(#Безымянный_градиент_245-4);
      }

      .cls-5 {
        fill: url(#Безымянный_градиент_245-5);
      }

      .cls-6 {
        fill: url(#Безымянный_градиент_245-6);
      }

      .cls-7 {
        fill: url(#Безымянный_градиент_245-7);
      }

      .cls-8 {
        fill: url(#Безымянный_градиент_245-8);
      }

      .cls-9 {
        fill: url(#Безымянный_градиент_33);
      }

      .cls-10 {
        fill: url(#Безымянный_градиент_34);
      }

      .cls-11 {
        fill: url(#Безымянный_градиент_33-2);
      }

      .cls-12 {
        fill: url(#Безымянный_градиент_33-3);
      }

      .cls-13 {
        fill: #e5a700;
      }

      .cls-14 {
        fill: #fffe00;
      }

      .cls-15 {
        fill: #009deb;
      }

      .cls-16 {
        font-size: 30px;
      }

      .cls-16, .cls-20 {
        fill: #a41206;
      }

      .cls-16, .cls-17 {
        font-family: Georgia-Bold, Georgia;
        font-weight: 700;
      }

      .cls-17 {
        font-size: 31.16px;
      }

      .cls-17, .cls-18 {
        fill: #fff;
      }

      .cls-18 {
        stroke: #000;
        stroke-miterlimit: 10;
      }

      .cls-18, .cls-20 {
        stroke-linecap: round;
      }

      .cls-19 {
        fill: #0c2d96;
      }

      .cls-20 {
        stroke: #fff;
        stroke-linejoin: round;
        stroke-width: 2px;
      }
    </style>
    <linearGradient id="Безымянный_градиент_245" data-name="Безымянный градиент 245" x1="504.01" y1="202.61" x2="694.16" y2="202.61" gradientUnits="userSpaceOnUse">
      <stop offset="0" stop-color="#fcd93c"/>
      <stop offset="1" stop-color="#ff9353"/>
    </linearGradient>
    <linearGradient id="Безымянный_градиент_245-2" x1="313.85" y1="202.6" x2="504" y2="202.6" xlink:href="#Безымянный_градиент_245"/>
    <linearGradient id="Безымянный_градиент_245-3" x1="89.92" y1="408.99" x2="333.13" y2="408.99" xlink:href="#Безымянный_градиент_245"/>
    <linearGradient id="Безымянный_градиент_245-4" x1="89.92" y1="599.14" x2="333.13" y2="599.14" xlink:href="#Безымянный_градиент_245"/>
    <linearGradient id="Безымянный_градиент_245-5" x1="313.85" y1="796.39" x2="504" y2="796.39" xlink:href="#Безымянный_градиент_245"/>
    <linearGradient id="Безымянный_градиент_245-6" x1="504" y1="796.39" x2="694.15" y2="796.39" xlink:href="#Безымянный_градиент_245"/>
    <linearGradient id="Безымянный_градиент_245-7" x1="683.81" y1="596.61" x2="927.03" y2="596.61" xlink:href="#Безымянный_градиент_245"/>
    <linearGradient id="Безымянный_градиент_245-8" x1="683.79" y1="408.93" x2="927" y2="408.93" xlink:href="#Безымянный_градиент_245"/>
    <linearGradient id="Безымянный_градиент_33" data-name="Безымянный градиент 33" x1="504.2" y1="283.71" x2="504.2" y2="26.38" gradientUnits="userSpaceOnUse">
      <stop offset="0" stop-color="#e5a700"/>
      <stop offset="0.18" stop-color="#e7ad00"/>
      <stop offset="0.43" stop-color="#ecbe00"/>
      <stop offset="0.71" stop-color="#f4da00"/>
      <stop offset="1" stop-color="#ff0"/>
    </linearGradient>
    <linearGradient id="Безымянный_градиент_34" data-name="Безымянный градиент 34" x1="284.8" y1="503.84" x2="0.75" y2="503.84" xlink:href="#Безымянный_градиент_33"/>
    <linearGradient id="Безымянный_градиент_33-2" x1="503.39" y1="716.97" x2="503.39" y2="992.69" xlink:href="#Безымянный_градиент_33"/>
    <linearGradient id="Безымянный_градиент_33-3" x1="713.36" y1="504.42" x2="998.63" y2="504.42" xlink:href="#Безымянный_градиент_33"/>
  </defs>
  <g id="Слой_1" data-name="Слой 1">
    <path class="cls-1" d="M504.18,81.47c-2.72,3.7,28.83,23.93,61,66,19,24.84,35.86,46.89,44,80,6.53,26.55,1.28,35.14,12,55,14.37,26.64,42.49,45.82,49,41,2.54-1.88.65-6.59,0-14-3.2-36.29,30.05-60.61,23-69-4.14-4.92-20.65-2.61-30,5-4.12,3.35-6.77,7.67-10,7-4.1-.85-5.6-9-6-11-4.79-23.91-33.15-71-47-90-20.09-27.58-43.48-42.65-58-52C528.2,90.47,506.38,78.47,504.18,81.47Z"/>
    <path class="cls-2" d="M503.84,81.47c2.71,3.7-28.83,23.93-61,66-19,24.84-35.86,46.89-44,80-6.53,26.55-1.28,35.13-12,55-14.38,26.64-42.5,45.81-49,41-2.55-1.89-.66-6.6,0-14,3.2-36.3-30.06-60.61-23-69,4.13-4.92,20.65-2.61,30,5,4.12,3.35,6.76,7.66,10,7,4.1-.85,5.59-9,6-11,4.78-23.91,33.14-71,47-90,20.08-27.59,43.48-42.65,58-52C479.81,90.47,501.63,78.46,503.84,81.47Z"/>
    <path class="cls-3" d="M90.39,503.9c3.7,2.71,23.93-28.83,66-61,24.84-19,46.89-35.86,80-44,26.55-6.53,35.13-1.28,55-12,26.64-14.38,45.81-42.5,41-49-1.89-2.55-6.59-.66-14,0-36.3,3.2-60.61-30.06-69-23-4.92,4.13-2.61,20.65,5,30,3.35,4.12,7.66,6.77,7,10-.85,4.1-9,5.59-11,6-23.91,4.78-71,33.14-90,47-27.59,20.08-42.65,43.48-52,58C99.39,479.87,87.38,501.69,90.39,503.9Z"/>
    <path class="cls-4" d="M90.39,504.22c3.7-2.71,23.93,28.83,66,61,24.84,19,46.89,35.86,80,44,26.55,6.53,35.13,1.29,55,12,26.64,14.38,45.81,42.5,41,49-1.89,2.55-6.59.66-14,0-36.3-3.19-60.61,30.06-69,23-4.92-4.13-2.61-20.64,5-30,3.35-4.12,7.66-6.76,7-10-.85-4.1-9-5.59-11-6-23.91-4.78-71-33.14-90-47-27.59-20.08-42.65-43.48-52-58C99.39,528.25,87.38,506.43,90.39,504.22Z"/>
    <path class="cls-5" d="M503.84,917.53c2.71-3.7-28.83-23.93-61-66-19-24.84-35.86-46.89-44-80-6.53-26.55-1.28-35.14-12-55-14.38-26.64-42.5-45.82-49-41-2.55,1.88-.66,6.59,0,14,3.2,36.29-30.06,60.61-23,69,4.13,4.92,20.65,2.61,30-5,4.12-3.35,6.76-7.67,10-7,4.1.85,5.59,9,6,11,4.78,23.91,33.14,71,47,90,20.08,27.58,43.48,42.65,58,52C479.81,908.53,501.63,920.53,503.84,917.53Z"/>
    <path class="cls-6" d="M504.16,917.53c-2.71-3.7,28.83-23.93,61-66,19-24.84,35.86-46.89,44-80,6.53-26.55,1.28-35.14,12-55,14.38-26.64,42.5-45.82,49-41,2.55,1.88.66,6.59,0,14-3.2,36.29,30.06,60.61,23,69-4.13,4.92-20.65,2.61-30-5-4.12-3.35-6.76-7.67-10-7-4.1.85-5.59,9-6,11-4.78,23.91-33.14,71-47,90-20.08,27.58-43.48,42.65-58,52C528.19,908.53,506.37,920.53,504.16,917.53Z"/>
    <path class="cls-7" d="M926.55,504.16c-3.7-2.65-23.93,28.08-66,59.41-24.83,18.51-46.88,34.93-80,42.86-26.55,6.36-35.13,1.25-55,11.69-26.64,14-45.81,41.39-41,47.73,1.89,2.47,6.6.63,14,0,36.3-3.12,60.62,29.27,69,22.4,4.92-4,2.61-20.11-5-29.22-3.35-4-7.66-6.59-7-9.74.85-4,9-5.45,11-5.84,23.92-4.67,71-32.29,90-45.78,27.59-19.57,42.65-42.35,52-56.5C917.55,527.56,929.56,506.31,926.55,504.16Z"/>
    <path class="cls-8" d="M926.53,503.84c-3.7,2.71-23.93-28.83-66-61-24.84-19-46.89-35.86-80-44-26.55-6.53-35.14-1.28-55-12-26.64-14.38-45.82-42.5-41-49,1.88-2.55,6.59-.66,14,0,36.29,3.2,60.61-30.06,69-23,4.92,4.13,2.61,20.65-5,30-3.35,4.12-7.67,6.76-7,10,.85,4.1,9,5.59,11,6,23.91,4.78,71,33.14,90,47,27.58,20.08,42.65,43.48,52,58C917.53,479.81,929.53,501.63,926.53,503.84Z"/>
    <path class="cls-9" d="M444.81,265.59c-8.92-13-3.53-25.13,24-115,22-71.89,26.5-90,35-90,9,0,13,20.43,34,88,27.49,88.45,35.28,100.57,26,115C543.27,295.5,466.12,296.77,444.81,265.59Z"/>
    <path class="cls-10" d="M266.55,563.23c-13,8.91-25.13,3.53-115-24-71.89-22-90-26.5-90-35,0-9,20.43-13,88-34,88.45-27.5,100.58-35.29,115-26C296.46,464.77,297.73,541.91,266.55,563.23Z"/>
    <path class="cls-11" d="M562.78,732.68c8.91,13,3.53,25.12-24,115-22,71.89-26.5,90-35,90-9,0-13-20.43-34-88-27.5-88.45-35.28-100.58-26-115C464.32,702.76,541.46,701.49,562.78,732.68Z"/>
    <path class="cls-12" d="M736,445c13-8.92,25.12-3.53,115,24,71.88,22,90,26.5,90,35,0,9-20.44,13-88,34-88.45,27.49-100.58,35.28-115,26C706.12,543.5,704.85,466.35,736,445Z"/>
    <circle class="cls-13" cx="500" cy="500" r="250"/>
    <circle class="cls-14" cx="500" cy="500" r="200"/>
    <path class="cls-15" d="M593,583.5c-51.08,0-92.5-40.3-92.5-90s-41.42-90-92.5-90-92.5,40.3-92.5,90c0-99.41,82.83-180,185-180s185,80.59,185,180C685.5,543.2,644.08,583.5,593,583.5Z"/>
    <g>
      <text class="cls-16" transform="matrix(-0.49, -0.87, 0.87, -0.49, 313.8, 607.63)"> </text>
      <text class="cls-16" transform="matrix(-0.46, -0.89, 0.89, -0.46, 310.18, 601.14)"> </text>
      <text class="cls-16" transform="matrix(-0.42, -0.91, 0.91, -0.42, 306.79, 594.5)"> </text>
      <text class="cls-16" transform="translate(303.64 587.77) rotate(-113.09)"> </text>
      <text class="cls-16" transform="translate(300.5 581.2) rotate(-108.94)">К</text>
      <text class="cls-16" transform="translate(292.89 559.01) rotate(-102.81)">А</text>
      <text class="cls-16" transform="matrix(-0.11, -0.99, 0.99, -0.11, 287.87, 537.34)">Л</text>
      <text class="cls-16" transform="matrix(0.02, -1, 1, 0.02, 284.65, 513.13)">М</text>
      <text class="cls-16" transform="translate(285.05 483.02) rotate(-81.14)">Ы</text>
      <text class="cls-16" transform="translate(290.21 450.97) rotate(-73.26)">Ц</text>
      <text class="cls-16" transform="translate(297.89 425.62) rotate(-66.57)">К</text>
      <text class="cls-16" transform="translate(307.09 404.06) rotate(-59.82)">И</text>
      <text class="cls-16" transform="translate(320.64 380.68) rotate(-52.64)">Й</text>
      <text class="cls-16" transform="translate(337.47 359.27) rotate(-48.07)"> </text>
      <text class="cls-16" transform="translate(342.23 353.68) rotate(-44.52)">Г</text>
      <text class="cls-16" transform="matrix(0.78, -0.63, 0.63, 0.78, 355.84, 340.08)">О</text>
      <text class="cls-16" transform="translate(374.67 325.03) rotate(-32.81)">С</text>
      <text class="cls-16" transform="translate(392.29 313.63) rotate(-27.17)">У</text>
      <text class="cls-16" transform="matrix(0.93, -0.36, 0.36, 0.93, 411.23, 303.81)">Д</text>
      <text class="cls-16" transform="translate(433.14 295.34) rotate(-15.03)">А</text>
      <text class="cls-16" transform="translate(454.67 289.57) rotate(-9.29)">Р</text>
      <text class="cls-16" transform="translate(474.96 286.22) rotate(-3.77)">С</text>
      <text class="cls-16" transform="translate(495.91 284.85) rotate(1.62)">Т</text>
      <text class="cls-16" transform="matrix(0.99, 0.13, -0.13, 0.99, 515.97, 285.33)">В</text>
      <text class="cls-16" transform="translate(538.02 288.12) rotate(12.99)">Е</text>
      <text class="cls-16" transform="translate(558.64 292.68) rotate(19.43)">Н</text>
      <text class="cls-16" transform="translate(583.92 301.56) rotate(26.6)">Н</text>
      <text class="cls-16" transform="matrix(0.82, 0.57, -0.57, 0.82, 607.96, 313.33)">Ы</text>
      <text class="cls-16" transform="translate(634.63 331.83) rotate(42.37)">Й</text>
      <text class="cls-16" transform="matrix(0.68, 0.73, -0.73, 0.68, 654.5, 350.47)"> </text>
      <text class="cls-16" transform="translate(659.66 355.63) rotate(50.74)">У</text>
      <text class="cls-16" transform="matrix(0.54, 0.84, -0.84, 0.54, 673.29, 372.01)">Н</text>
      <text class="cls-16" transform="translate(687.87 394.49) rotate(64.3)">И</text>
      <text class="cls-16" transform="matrix(0.33, 0.94, -0.94, 0.33, 699.52, 418.96)">В</text>
      <text class="cls-16" transform="translate(706.79 439.95) rotate(76.72)">Е</text>
      <text class="cls-16" transform="translate(711.66 460.55) rotate(82.3)">Р</text>
      <text class="cls-16" transform="translate(714.45 480.95) rotate(87.81)">С</text>
      <text class="cls-16" transform="translate(715.45 501.85) rotate(94.1)">И</text>
      <text class="cls-16" transform="translate(713.34 528.9) rotate(100.37)">Т</text>
      <text class="cls-16" transform="translate(709.78 548.63) rotate(105.89)">Е</text>
      <text class="cls-16" transform="translate(703.98 568.99) rotate(111.42)">Т</text>
    </g>
    <g>
      <text class="cls-17" transform="matrix(0.56, 0.83, -0.83, 0.56, 307.95, 626.51)">и</text>
      <text class="cls-17" transform="matrix(0.65, 0.76, -0.76, 0.65, 321.21, 646.35)">м</text>
      <text class="cls-17" transform="matrix(0.72, 0.69, -0.69, 0.72, 338.39, 666.3)">е</text>
      <text class="cls-17" transform="matrix(0.78, 0.62, -0.62, 0.78, 352.04, 679.55)">н</text>
      <text class="cls-17" transform="translate(370.46 694.2) rotate(32.61)">и</text>
      <text class="cls-17" transform="translate(390.22 706.5) rotate(28.47)"> </text>
      <text class="cls-17" transform="translate(397.95 710.97) rotate(24.18)">Б</text>
      <text class="cls-17" transform="translate(420.29 720.67) rotate(19.57)">.</text>
      <text class="cls-17" transform="translate(430.88 724.66) rotate(14.98)">Б</text>
      <text class="cls-17" transform="translate(454.44 730.65) rotate(10.41)">.</text>
      <text class="cls-17" transform="translate(465.09 732.57) rotate(7.93)"> </text>
      <text class="cls-17" transform="matrix(1, 0.07, -0.07, 1, 473.76, 733.96)">Г</text>
      <text class="cls-17" transform="matrix(1, -0.02, 0.02, 1, 495.47, 735.44)">о</text>
      <text class="cls-17" transform="translate(516.57 734.89) rotate(-6.84)">р</text>
      <text class="cls-17" transform="translate(538.14 732.22) rotate(-12.3)">о</text>
      <text class="cls-17" transform="translate(558.71 727.66) rotate(-17.62)">д</text>
      <text class="cls-17" transform="translate(578.15 721.45) rotate(-22.95)">о</text>
      <text class="cls-17" transform="matrix(0.88, -0.47, 0.47, 0.88, 597.51, 713.17)">в</text>
      <text class="cls-17" transform="translate(615.65 703.41) rotate(-34.04)">и</text>
      <text class="cls-17" transform="matrix(0.77, -0.64, 0.64, 0.77, 635.23, 690.02)">к</text>
      <text class="cls-17" transform="matrix(0.7, -0.71, 0.71, 0.7, 651.45, 676.41)">о</text>
      <text class="cls-17" transform="matrix(0.64, -0.77, 0.77, 0.64, 666.2, 661.46)">в</text>
      <text class="cls-17" transform="translate(679.21 645.61) rotate(-55.59)">а</text>
    </g>
  </g>
  <g id="lotus">
    <path class="cls-18" d="M504,341.53c-51.25,63.85,0,127.24,0,127.24S555.27,405.38,504,341.53Z"/>
    <path class="cls-18" d="M563.68,348.77c-14.87,10.52-32.38,20.79-31.4,34.54,2.09,29.49-.53,56.78-8.37,71.93-4.6,8.89,4.72,15.85,4.72,15.85S595.36,424.27,563.68,348.77Z"/>
    <path class="cls-18" d="M618.81,361.25c-18,2.74-32.3,15.34-37.58,28.07-4.56,11-8,32-12.34,43.13-6.51,16.52-15.75,21.93-24,27.93S542,476.67,542,476.67,591.3,461,612.36,430.42C624.47,412.82,616.82,391.07,618.81,361.25Z"/>
    <path class="cls-18" d="M617.45,448.7c-10.71,5.1-14.26,7-23.66,10.92-4.67,2-19.54,9-29.25,11-8.78,1.76-18.95,7.79-21,9a2.5,2.5,0,0,0-.38.24l6.6-.9a47.89,47.89,0,0,1,11.66,2.93c15.6,5.71,42.67,19.88,61.47,15.74,20.86-4.6,24.83-14.42,46.64-34.87C654.49,452.51,628.24,443.56,617.45,448.7Z"/>
    <path class="cls-18" d="M482.81,457.44C475,442.3,472.36,415,474.45,385.51c1-13.75-16.54-24-31.41-34.53C411.37,426.47,478.1,473.3,478.1,473.3S487.42,466.33,482.81,457.44Z"/>
    <path class="cls-18" d="M461.82,462.58c-8.24-6-17.48-11.41-24-27.93-4.38-11.12-7.79-32.14-12.34-43.13-5.28-12.73-19.58-25.32-37.59-28.07,2,29.83-5.66,51.57,6.45,69.17,21.06,30.59,70.34,46.25,70.34,46.25S469.92,468.47,461.82,462.58Z"/>
    <path class="cls-18" d="M463.56,482.09a2,2,0,0,0-.38-.24c-2.05-1.26-12.22-7.29-21-9.05-9.71-1.94-24.58-9-29.25-11-9.39-3.94-12.95-5.82-23.65-10.91s-37,3.81-52.09,14.08C359,485.44,363,495.27,383.84,499.86c18.79,4.14,45.86-10,61.47-15.73A47.39,47.39,0,0,1,457,481.19Z"/>
    <path class="cls-18" d="M504.05,485.75c10.7,25.74,24.2,44.2,41.24,51.44,33,14,71.18-1.72,71.18-1.72S584.66,471.44,504.05,485.75Z"/>
    <path class="cls-18" d="M391.64,535.51s38.17,15.74,71.18,1.72c17-7.24,30.54-25.7,41.23-51.44C423.44,471.48,391.64,535.51,391.64,535.51Z"/>
  </g>
  <g id="Слой_4" data-name="Слой 4">
    <path class="cls-19" d="M461,645.24l7.85-4.75a1.34,1.34,0,0,1,1.45,0c2.91,2.08,12.63,10.94-4.13,26.91-.85.81-2.38.09-2.09-1,1.37-5.2,1.6-8.4,1.1-12.43-.4-3.3-2.87-5.86-4.35-7.12A1,1,0,0,1,461,645.24Z"/>
    <ellipse class="cls-19" cx="474.24" cy="454.03" rx="5.13" ry="4.54"/>
    <ellipse class="cls-19" cx="474.24" cy="478.74" rx="5.13" ry="4.54"/>
    <path class="cls-19" d="M486.73,447.5,514.32,426a.63.63,0,0,1,.3-.13L532.71,423c.64-.1,1,.62.48,1l-30.08,20.15a.66.66,0,0,1-.19.09l-15.6,4.2C486.68,448.6,486.24,447.89,486.73,447.5Z"/>
    <path class="cls-19" d="M512,456.09c0,6.7-5.41,9.19-12.86,13.61-3.32,2-12.84,8-15.45,5.77-1.35-1.16,12.18-10.44,15.22-13.92,4-4.54,2.37-9.56.09-11.09-5.81-3.89-14.23,1.45-14.94.53-2.24-2.89,7.52-7,13.56-7C505.51,444,512,449.39,512,456.09Z"/>
    <path class="cls-19" d="M512.43,480.55c0,6.71-5.41,9.19-12.86,13.61-3.32,2-12.84,8-15.44,5.77-1.36-1.15,12.17-10.44,15.21-13.91,4-4.55,2.37-9.57.1-11.09-5.81-3.89-14.24,1.44-14.94.53-2.24-2.89,7.51-7,13.55-7C506,468.42,512.43,473.85,512.43,480.55Z"/>
    <path class="cls-19" d="M513.06,505.09c0,6.71-5.41,9.19-12.86,13.61-3.32,2-12.84,8-15.44,5.77C483.4,523.32,496.93,514,500,510.56c4-4.54,2.37-9.57.1-11.09-5.81-3.89-14.24,1.44-14.94.53-2.24-2.89,7.51-7,13.55-7C506.62,493,513.06,498.39,513.06,505.09Z"/>
    <path class="cls-19" d="M513.06,530c0,6.7-5.26,9.11-12.46,13.82-3.17,2.08-21.08,14.42-23.69,12.2-1.35-1.16,20-17.08,23.06-20.56,4-4.54,2.37-9.56.1-11.09-5.81-3.88-14.24,1.45-14.94.54-2.24-2.89,7.51-7,13.55-7C506.62,517.82,513.06,523.25,513.06,530Z"/>
    <path class="cls-19" d="M518.42,534.38s.78-.25,6.33-3.92c6.56-4.32-1.17-7.9,3.55-12.91a17.13,17.13,0,0,1,6.85-4.25,17.48,17.48,0,0,1,2.48-.72.81.81,0,0,1,1,1h0a23.21,23.21,0,0,1-2.83,5.22,7.7,7.7,0,0,0-1.24,6.61c1.59,6.08-3.4,9.88-7.63,10A31.82,31.82,0,0,1,518.42,534.38Z"/>
    <path class="cls-19" d="M476.91,556v23.45s3.13,2.87,5-.57,11.65-15.14,19-17.19l-.09,17.43-16.84,10.24s-3.33,3.19,1.2,3.68S511,578.69,511,578.69l.13-28.25s-1.17-.6-5,.33C495,553.47,482.53,568,482.53,568l.37-15.47Z"/>
    <path class="cls-19" d="M512,597.08c0,6.7-5.41,9.19-12.86,13.61-3.32,2-12.84,8-15.45,5.77-1.35-1.16,12.18-10.44,15.22-13.92,4-4.54,2.37-9.56.09-11.09-5.81-3.88-14.23,1.45-14.94.54-2.23-2.89,7.52-7,13.56-7C505.54,585,512,590.38,512,597.08Z"/>
    <path class="cls-19" d="M512.5,621.57c0,6.7-5.42,9.19-12.86,13.61-3.32,2-12.84,8-15.45,5.77-1.36-1.16,12.17-10.44,15.22-13.92,4-4.54,2.37-9.56.09-11.09-5.81-3.89-14.23,1.44-14.94.53-2.24-2.89,7.51-7,13.55-7C506.06,609.43,512.5,614.87,512.5,621.57Z"/>
    <path class="cls-19" d="M512.5,646.19c0,6.7-5.42,9.19-12.86,13.61-3.32,2-12.84,8-15.45,5.77-1.36-1.16,12.17-10.44,15.22-13.92,4-4.54,2.37-9.56.09-11.09-5.81-3.88-14.23,1.45-14.94.54-2.24-2.89,7.51-7,13.55-7C506.06,634.06,512.5,639.49,512.5,646.19Z"/>
    <path class="cls-19" d="M540.5,607s-.78-.25-6.33-3.91c-6.56-4.33,1.17-7.91-3.55-12.92a17.24,17.24,0,0,0-6.85-4.25,20.59,20.59,0,0,0-2.48-.72.82.82,0,0,0-1,1h0a23.42,23.42,0,0,0,2.83,5.22,7.69,7.69,0,0,1,1.24,6.61c-1.59,6.07,3.4,9.88,7.63,10A31.36,31.36,0,0,0,540.5,607"/>
    <path class="cls-19" d="M490.76,662.3s17.44,1.9,27.36,10.71c8.82-7.7,9.51-8.26,9.51-8.26s1.57-7.77-26.73-6.91C499.11,657.89,490.76,662.3,490.76,662.3Z"/>
    <path class="cls-20" d="M504,144.29s-24.93,50.49-24.48,65.78c.6,20.68,15.3,24.62,19.86,26.09.6.19,4.62,1,4.62,1s4-.81,4.62-1c4.56-1.47,19.26-5.41,19.86-26.09C528.93,194.78,504,144.29,504,144.29Z"/>
    <path class="cls-20" d="M504,864.15s24.93-50.49,24.48-65.77c-.6-20.68-15.3-24.63-19.86-26.09-.6-.2-4.62-1-4.62-1s-4,.81-4.62,1c-4.56,1.46-19.26,5.41-19.86,26.09C479.07,813.66,504,864.15,504,864.15Z"/>
    <path class="cls-20" d="M864.05,504s-50.48-24.93-65.77-24.48c-20.68.6-24.63,15.3-26.09,19.86-.19.6-1,4.62-1,4.62s.81,4,1,4.62c1.46,4.56,5.41,19.26,26.09,19.86C813.57,528.93,864.05,504,864.05,504Z"/>
    <path class="cls-20" d="M143.79,504s50.48,24.93,65.77,24.48c20.68-.6,24.63-15.3,26.09-19.86.19-.6,1-4.62,1-4.62s-.81-4-1-4.62c-1.46-4.56-5.41-19.26-26.09-19.86C194.27,479.07,143.79,504,143.79,504Z"/>
  </g>
</svg>
